<svg width="184" height="53" viewBox="0 0 184 53" fill="none" xmlns="http://www.w3.org/2000/svg">
<rect x="1" y="1" width="182" height="51" rx="15" fill="#DEDEDE"/>
<rect x="1" y="1" width="182" height="51" rx="15" stroke="black" stroke-width="2"/>
<path d="M54.9232 23.9948H52.0279C51.9453 23.52 51.793 23.0994 51.5711 22.733C51.3492 22.3614 51.0731 22.0465 50.7428 21.7885C50.4125 21.5304 50.0357 21.3369 49.6125 21.2079C49.1945 21.0737 48.7429 21.0066 48.2578 21.0066C47.3959 21.0066 46.632 21.2234 45.9663 21.6569C45.3005 22.0853 44.7793 22.7149 44.4025 23.5458C44.0257 24.3716 43.8374 25.3805 43.8374 26.5727C43.8374 27.7856 44.0257 28.8074 44.4025 29.6384C44.7844 30.4641 45.3057 31.0886 45.9663 31.5118C46.632 31.9298 47.3933 32.1388 48.25 32.1388C48.7248 32.1388 49.1687 32.0769 49.5815 31.9531C49.9996 31.824 50.3738 31.6357 50.7041 31.3879C51.0395 31.1402 51.3208 30.8357 51.5479 30.4744C51.7801 30.1132 51.9401 29.7003 52.0279 29.2358L54.9232 29.2513C54.8148 30.0048 54.58 30.7118 54.2187 31.3724C53.8626 32.033 53.3955 32.6162 52.8175 33.122C52.2395 33.6226 51.5634 34.0149 50.7892 34.2987C50.0151 34.5774 49.1558 34.7168 48.2113 34.7168C46.8178 34.7168 45.574 34.3942 44.4799 33.7491C43.3858 33.104 42.5239 32.1724 41.8943 30.9544C41.2646 29.7364 40.9498 28.2759 40.9498 26.5727C40.9498 24.8644 41.2672 23.4039 41.902 22.1911C42.5368 20.9731 43.4013 20.0415 44.4954 19.3964C45.5895 18.7513 46.8282 18.4287 48.2113 18.4287C49.0938 18.4287 49.9144 18.5526 50.6731 18.8003C51.4318 19.048 52.1078 19.4119 52.7014 19.8918C53.2949 20.3666 53.7826 20.9498 54.1645 21.6414C54.5516 22.3278 54.8045 23.1123 54.9232 23.9948ZM62.6163 34.7322C61.455 34.7322 60.4486 34.4768 59.5971 33.9658C58.7455 33.4549 58.0849 32.7401 57.6153 31.8214C57.1508 30.9028 56.9185 29.8293 56.9185 28.601C56.9185 27.3727 57.1508 26.2966 57.6153 25.3728C58.0849 24.449 58.7455 23.7316 59.5971 23.2207C60.4486 22.7097 61.455 22.4543 62.6163 22.4543C63.7775 22.4543 64.7839 22.7097 65.6354 23.2207C66.487 23.7316 67.145 24.449 67.6095 25.3728C68.0792 26.2966 68.314 27.3727 68.314 28.601C68.314 29.8293 68.0792 30.9028 67.6095 31.8214C67.145 32.7401 66.487 33.4549 65.6354 33.9658C64.7839 34.4768 63.7775 34.7322 62.6163 34.7322ZM62.6317 32.4872C63.2614 32.4872 63.7878 32.3143 64.211 31.9685C64.6342 31.6176 64.949 31.1479 65.1555 30.5596C65.3671 29.9712 65.4729 29.3158 65.4729 28.5933C65.4729 27.8656 65.3671 27.2075 65.1555 26.6192C64.949 26.0257 64.6342 25.5534 64.211 25.2025C63.7878 24.8515 63.2614 24.6761 62.6317 24.6761C61.9866 24.6761 61.4499 24.8515 61.0215 25.2025C60.5983 25.5534 60.2809 26.0257 60.0693 26.6192C59.8629 27.2075 59.7597 27.8656 59.7597 28.5933C59.7597 29.3158 59.8629 29.9712 60.0693 30.5596C60.2809 31.1479 60.5983 31.6176 61.0215 31.9685C61.4499 32.3143 61.9866 32.4872 62.6317 32.4872ZM73.495 27.5327V34.5H70.6926V22.6091H73.3711V24.6296H73.5105C73.784 23.9638 74.2201 23.4348 74.8188 23.0426C75.4226 22.6504 76.1684 22.4543 77.056 22.4543C77.8766 22.4543 78.5914 22.6297 79.2004 22.9807C79.8146 23.3316 80.2894 23.84 80.6249 24.5058C80.9655 25.1715 81.1332 25.9792 81.1281 26.9288V34.5H78.3257V27.3624C78.3257 26.5676 78.1192 25.9457 77.7063 25.4967C77.2986 25.0477 76.7335 24.8232 76.0109 24.8232C75.5207 24.8232 75.0846 24.9315 74.7026 25.1483C74.3259 25.3599 74.0291 25.667 73.8124 26.0695C73.6008 26.4721 73.495 26.9598 73.495 27.5327ZM89.9146 22.6091V24.7767H83.0789V22.6091H89.9146ZM84.7666 19.7602H87.569V30.9234C87.569 31.3002 87.6257 31.5892 87.7393 31.7905C87.858 31.9866 88.0128 32.1208 88.2038 32.193C88.3947 32.2653 88.6063 32.3014 88.8386 32.3014C89.014 32.3014 89.174 32.2885 89.3185 32.2627C89.4682 32.2369 89.5818 32.2137 89.6592 32.193L90.1314 34.3839C89.9817 34.4355 89.7676 34.4923 89.4889 34.5542C89.2153 34.6161 88.8799 34.6522 88.4825 34.6626C87.7806 34.6832 87.1484 34.5774 86.5858 34.3452C86.0233 34.1078 85.5768 33.7413 85.2465 33.2459C84.9214 32.7504 84.7614 32.1311 84.7666 31.3879V19.7602ZM92.2584 34.5V22.6091H95.0608V34.5H92.2584ZM93.6673 20.9214C93.2235 20.9214 92.8416 20.7744 92.5216 20.4802C92.2016 20.1808 92.0416 19.8222 92.0416 19.4041C92.0416 18.9809 92.2016 18.6222 92.5216 18.3281C92.8416 18.0287 93.2235 17.879 93.6673 17.879C94.1163 17.879 94.4982 18.0287 94.8131 18.3281C95.133 18.6222 95.293 18.9809 95.293 19.4041C95.293 19.8222 95.133 20.1808 94.8131 20.4802C94.4982 20.7744 94.1163 20.9214 93.6673 20.9214ZM100.745 27.5327V34.5H97.9426V22.6091H100.621V24.6296H100.76C101.034 23.9638 101.47 23.4348 102.069 23.0426C102.673 22.6504 103.418 22.4543 104.306 22.4543C105.127 22.4543 105.841 22.6297 106.45 22.9807C107.065 23.3316 107.539 23.84 107.875 24.5058C108.215 25.1715 108.383 25.9792 108.378 26.9288V34.5H105.576V27.3624C105.576 26.5676 105.369 25.9457 104.956 25.4967C104.549 25.0477 103.983 24.8232 103.261 24.8232C102.771 24.8232 102.335 24.9315 101.953 25.1483C101.576 25.3599 101.279 25.667 101.062 26.0695C100.851 26.4721 100.745 26.9598 100.745 27.5327ZM118.806 29.499V22.6091H121.608V34.5H118.891V32.3866H118.767C118.499 33.0523 118.057 33.5968 117.443 34.02C116.834 34.4432 116.083 34.6548 115.191 34.6548C114.411 34.6548 113.722 34.4819 113.124 34.1362C112.53 33.7852 112.066 33.2768 111.73 32.6111C111.395 31.9402 111.227 31.1299 111.227 30.1803V22.6091H114.029V29.7467C114.029 30.5002 114.236 31.0989 114.649 31.5428C115.062 31.9866 115.603 32.2085 116.274 32.2085C116.687 32.2085 117.087 32.1079 117.474 31.9066C117.861 31.7053 118.179 31.406 118.427 31.0086C118.679 30.606 118.806 30.1028 118.806 29.499ZM127.912 34.74C127.158 34.74 126.48 34.6058 125.876 34.3374C125.277 34.0639 124.802 33.6613 124.451 33.1298C124.106 32.5982 123.933 31.9427 123.933 31.1634C123.933 30.4925 124.056 29.9377 124.304 29.499C124.552 29.0603 124.89 28.7094 125.318 28.4462C125.747 28.183 126.229 27.9843 126.766 27.8501C127.308 27.7107 127.868 27.6101 128.446 27.5482C129.143 27.4759 129.708 27.4114 130.141 27.3546C130.575 27.2927 130.89 27.1998 131.086 27.0759C131.287 26.9469 131.388 26.7482 131.388 26.4798V26.4334C131.388 25.8502 131.215 25.3986 130.869 25.0786C130.523 24.7586 130.025 24.5987 129.375 24.5987C128.688 24.5987 128.144 24.7483 127.741 25.0477C127.344 25.347 127.076 25.7005 126.936 26.1082L124.32 25.7366C124.526 25.0141 124.867 24.4103 125.342 23.9251C125.816 23.4348 126.397 23.0684 127.083 22.8259C127.77 22.5781 128.528 22.4543 129.359 22.4543C129.932 22.4543 130.503 22.5214 131.07 22.6555C131.638 22.7897 132.157 23.0116 132.626 23.3213C133.096 23.6258 133.473 24.0413 133.757 24.5677C134.046 25.0941 134.19 25.7521 134.19 26.5418V34.5H131.496V32.8665H131.403C131.233 33.1969 130.993 33.5065 130.683 33.7955C130.379 34.0794 129.994 34.309 129.53 34.4845C129.07 34.6548 128.531 34.74 127.912 34.74ZM128.639 32.6808C129.202 32.6808 129.69 32.5698 130.103 32.3479C130.515 32.1208 130.833 31.8214 131.055 31.4499C131.282 31.0783 131.395 30.6731 131.395 30.2344V28.8332C131.308 28.9055 131.158 28.9726 130.946 29.0345C130.74 29.0964 130.508 29.1506 130.25 29.1971C129.992 29.2435 129.736 29.2848 129.483 29.321C129.23 29.3571 129.011 29.388 128.825 29.4138C128.407 29.4706 128.033 29.5635 127.703 29.6925C127.372 29.8216 127.112 30.0022 126.921 30.2344C126.73 30.4615 126.634 30.7557 126.634 31.117C126.634 31.6331 126.823 32.0227 127.2 32.2859C127.576 32.5491 128.056 32.6808 128.639 32.6808ZM137.008 34.5V22.6091H139.725V24.5909H139.849C140.066 23.9045 140.437 23.3755 140.964 23.0039C141.495 22.6272 142.102 22.4388 142.783 22.4388C142.938 22.4388 143.111 22.4465 143.302 22.462C143.498 22.4723 143.66 22.4904 143.79 22.5162V25.0941C143.671 25.0528 143.482 25.0167 143.224 24.9857C142.972 24.9496 142.726 24.9315 142.489 24.9315C141.978 24.9315 141.519 25.0425 141.111 25.2644C140.708 25.4812 140.391 25.7831 140.159 26.1702C139.927 26.5572 139.81 27.0037 139.81 27.5094V34.5H137.008Z" fill="#1E1E1E"/>
</svg>
