<svg width="125" height="53" viewBox="0 0 125 53" fill="none" xmlns="http://www.w3.org/2000/svg">
<rect x="1" y="1" width="123" height="51" rx="15" fill="#DEDEDE"/>
<rect x="1" y="1" width="123" height="51" rx="15" stroke="black" stroke-width="2"/>
<path d="M30.458 23.9948H27.5627C27.4801 23.52 27.3279 23.0994 27.106 22.733C26.884 22.3614 26.6079 22.0465 26.2776 21.7885C25.9473 21.5304 25.5706 21.3369 25.1474 21.2079C24.7293 21.0737 24.2777 21.0066 23.7926 21.0066C22.9307 21.0066 22.1669 21.2234 21.5011 21.6569C20.8354 22.0853 20.3141 22.7149 19.9374 23.5458C19.5606 24.3716 19.3722 25.3805 19.3722 26.5727C19.3722 27.7856 19.5606 28.8074 19.9374 29.6384C20.3193 30.4641 20.8405 31.0886 21.5011 31.5118C22.1669 31.9298 22.9282 32.1388 23.7849 32.1388C24.2597 32.1388 24.7035 32.0769 25.1164 31.9531C25.5344 31.824 25.9086 31.6357 26.2389 31.3879C26.5744 31.1402 26.8557 30.8357 27.0827 30.4744C27.315 30.1132 27.475 29.7003 27.5627 29.2358L30.458 29.2513C30.3496 30.0048 30.1148 30.7118 29.7536 31.3724C29.3974 32.033 28.9304 32.6162 28.3523 33.122C27.7743 33.6226 27.0982 34.0149 26.3241 34.2987C25.5499 34.5774 24.6906 34.7168 23.7462 34.7168C22.3527 34.7168 21.1089 34.3942 20.0148 33.7491C18.9206 33.104 18.0588 32.1724 17.4291 30.9544C16.7995 29.7364 16.4847 28.2759 16.4847 26.5727C16.4847 24.8644 16.8021 23.4039 17.4369 22.1911C18.0717 20.9731 18.9361 20.0415 20.0303 19.3964C21.1244 18.7513 22.363 18.4287 23.7462 18.4287C24.6287 18.4287 25.4493 18.5526 26.208 18.8003C26.9666 19.048 27.6427 19.4119 28.2362 19.8918C28.8297 20.3666 29.3175 20.9498 29.6994 21.6414C30.0864 22.3278 30.3393 23.1123 30.458 23.9948ZM36.3861 34.74C35.6326 34.74 34.9539 34.6058 34.3501 34.3374C33.7514 34.0639 33.2766 33.6613 32.9256 33.1298C32.5798 32.5982 32.4069 31.9427 32.4069 31.1634C32.4069 30.4925 32.5308 29.9377 32.7785 29.499C33.0263 29.0603 33.3643 28.7094 33.7927 28.4462C34.221 28.183 34.7036 27.9843 35.2403 27.8501C35.7822 27.7107 36.3422 27.6101 36.9202 27.5482C37.617 27.4759 38.1821 27.4114 38.6156 27.3546C39.0491 27.2927 39.364 27.1998 39.5601 27.0759C39.7613 26.9469 39.862 26.7482 39.862 26.4798V26.4334C39.862 25.8502 39.6891 25.3986 39.3433 25.0786C38.9975 24.7586 38.4995 24.5987 37.8492 24.5987C37.1628 24.5987 36.6183 24.7483 36.2158 25.0477C35.8184 25.347 35.55 25.7005 35.4106 26.1082L32.794 25.7366C33.0005 25.0141 33.3411 24.4103 33.8159 23.9251C34.2907 23.4348 34.8713 23.0684 35.5577 22.8259C36.2441 22.5781 37.0028 22.4543 37.8337 22.4543C38.4066 22.4543 38.9769 22.5214 39.5446 22.6555C40.1123 22.7897 40.631 23.0116 41.1006 23.3213C41.5703 23.6258 41.947 24.0413 42.2309 24.5677C42.5199 25.0941 42.6644 25.7521 42.6644 26.5418V34.5H39.9704V32.8665H39.8775C39.7072 33.1969 39.4672 33.5065 39.1575 33.7955C38.853 34.0794 38.4685 34.309 38.004 34.4845C37.5447 34.6548 37.0054 34.74 36.3861 34.74ZM37.1138 32.6808C37.6763 32.6808 38.164 32.5698 38.5769 32.3479C38.9898 32.1208 39.3072 31.8214 39.5291 31.4499C39.7562 31.0783 39.8697 30.6731 39.8697 30.2344V28.8332C39.782 28.9055 39.6323 28.9726 39.4207 29.0345C39.2143 29.0964 38.982 29.1506 38.724 29.1971C38.4659 29.2435 38.2105 29.2848 37.9576 29.321C37.7047 29.3571 37.4854 29.388 37.2996 29.4138C36.8815 29.4706 36.5073 29.5635 36.177 29.6925C35.8467 29.8216 35.5861 30.0022 35.3952 30.2344C35.2042 30.4615 35.1087 30.7557 35.1087 31.117C35.1087 31.6331 35.2971 32.0227 35.6738 32.2859C36.0506 32.5491 36.5306 32.6808 37.1138 32.6808ZM48.2847 27.5327V34.5H45.4823V22.6091H48.1609V24.6296H48.3002C48.5737 23.9638 49.0098 23.4348 49.6085 23.0426C50.2123 22.6504 50.9581 22.4543 51.8458 22.4543C52.6664 22.4543 53.3812 22.6297 53.9902 22.9807C54.6043 23.3316 55.0792 23.84 55.4146 24.5058C55.7552 25.1715 55.923 25.9792 55.9178 26.9288V34.5H53.1154V27.3624C53.1154 26.5676 52.909 25.9457 52.4961 25.4967C52.0884 25.0477 51.5232 24.8232 50.8007 24.8232C50.3104 24.8232 49.8743 24.9315 49.4924 25.1483C49.1156 25.3599 48.8189 25.667 48.6021 26.0695C48.3905 26.4721 48.2847 26.9598 48.2847 27.5327ZM63.9535 34.7322C62.7664 34.7322 61.7471 34.4716 60.8956 33.9504C60.0492 33.4291 59.3963 32.7091 58.937 31.7905C58.4828 30.8667 58.2557 29.8035 58.2557 28.601C58.2557 27.3933 58.488 26.3276 58.9525 25.4038C59.417 24.4748 60.0724 23.7522 60.9188 23.2362C61.7704 22.7149 62.7768 22.4543 63.938 22.4543C64.9031 22.4543 65.7572 22.6323 66.5004 22.9884C67.2488 23.3394 67.8448 23.8374 68.2887 24.4825C68.7325 25.1225 68.9854 25.8708 69.0474 26.7276H66.3688C66.2604 26.1547 66.0024 25.6773 65.5947 25.2954C65.1921 24.9083 64.6528 24.7148 63.9767 24.7148C63.4038 24.7148 62.9006 24.8696 62.4671 25.1793C62.0336 25.4838 61.6955 25.9224 61.453 26.4953C61.2156 27.0682 61.0969 27.7546 61.0969 28.5545C61.0969 29.3648 61.2156 30.0616 61.453 30.6447C61.6904 31.2228 62.0233 31.6692 62.4516 31.984C62.8851 32.2937 63.3935 32.4485 63.9767 32.4485C64.3896 32.4485 64.7586 32.3711 65.0837 32.2163C65.414 32.0563 65.6901 31.8266 65.9121 31.5273C66.134 31.2279 66.2862 30.8641 66.3688 30.4357H69.0474C68.9803 31.277 68.7325 32.0227 68.3042 32.673C67.8758 33.3181 67.2926 33.8239 66.5546 34.1903C65.8166 34.5516 64.9495 34.7322 63.9535 34.7322ZM76.6127 34.7322C75.4205 34.7322 74.3909 34.4845 73.5239 33.9891C72.662 33.4884 71.9988 32.7814 71.5343 31.8679C71.0698 30.9492 70.8376 29.868 70.8376 28.6242C70.8376 27.4011 71.0698 26.3276 71.5343 25.4038C72.004 24.4748 72.6594 23.7522 73.5006 23.2362C74.3419 22.7149 75.3302 22.4543 76.4656 22.4543C77.1985 22.4543 77.8901 22.573 78.5403 22.8104C79.1958 23.0426 79.7738 23.4039 80.2744 23.8942C80.7802 24.3845 81.1776 25.0089 81.4666 25.7676C81.7556 26.5211 81.9001 27.4191 81.9001 28.4616V29.321H72.1536V27.432H79.2138C79.2087 26.8953 79.0926 26.4179 78.8655 25.9999C78.6384 25.5767 78.321 25.2438 77.9133 25.0012C77.5107 24.7586 77.0411 24.6374 76.5043 24.6374C75.9315 24.6374 75.4283 24.7767 74.9947 25.0554C74.5612 25.3289 74.2232 25.6902 73.9806 26.1392C73.7432 26.583 73.6219 27.0708 73.6168 27.6023V29.2513C73.6168 29.9429 73.7432 30.5364 73.9961 31.0318C74.249 31.5221 74.6025 31.8989 75.0567 32.1621C75.5108 32.4201 76.0424 32.5491 76.6514 32.5491C77.0591 32.5491 77.4281 32.4924 77.7585 32.3788C78.0888 32.2601 78.3752 32.0872 78.6178 31.8602C78.8603 31.6331 79.0435 31.3518 79.1674 31.0163L81.784 31.3105C81.6189 32.0021 81.304 32.6059 80.8396 33.122C80.3802 33.633 79.7919 34.0304 79.0745 34.3142C78.3571 34.5929 77.5365 34.7322 76.6127 34.7322ZM87.0734 18.6455V34.5H84.271V18.6455H87.0734ZM93.3769 34.74C92.6234 34.74 91.9447 34.6058 91.3409 34.3374C90.7422 34.0639 90.2674 33.6613 89.9164 33.1298C89.5707 32.5982 89.3978 31.9427 89.3978 31.1634C89.3978 30.4925 89.5216 29.9377 89.7694 29.499C90.0171 29.0603 90.3551 28.7094 90.7835 28.4462C91.2119 28.183 91.6944 27.9843 92.2311 27.8501C92.773 27.7107 93.333 27.6101 93.911 27.5482C94.6078 27.4759 95.1729 27.4114 95.6064 27.3546C96.04 27.2927 96.3548 27.1998 96.5509 27.0759C96.7522 26.9469 96.8528 26.7482 96.8528 26.4798V26.4334C96.8528 25.8502 96.6799 25.3986 96.3341 25.0786C95.9883 24.7586 95.4903 24.5987 94.84 24.5987C94.1536 24.5987 93.6091 24.7483 93.2066 25.0477C92.8092 25.347 92.5408 25.7005 92.4015 26.1082L89.7848 25.7366C89.9913 25.0141 90.3319 24.4103 90.8067 23.9251C91.2815 23.4348 91.8621 23.0684 92.5485 22.8259C93.235 22.5781 93.9936 22.4543 94.8245 22.4543C95.3974 22.4543 95.9677 22.5214 96.5354 22.6555C97.1031 22.7897 97.6218 23.0116 98.0914 23.3213C98.5611 23.6258 98.9378 24.0413 99.2217 24.5677C99.5107 25.0941 99.6552 25.7521 99.6552 26.5418V34.5H96.9612V32.8665H96.8683C96.698 33.1969 96.458 33.5065 96.1483 33.7955C95.8438 34.0794 95.4593 34.309 94.9949 34.4845C94.5355 34.6548 93.9962 34.74 93.3769 34.74ZM94.1046 32.6808C94.6671 32.6808 95.1548 32.5698 95.5677 32.3479C95.9806 32.1208 96.298 31.8214 96.5199 31.4499C96.747 31.0783 96.8605 30.6731 96.8605 30.2344V28.8332C96.7728 28.9055 96.6231 28.9726 96.4115 29.0345C96.2051 29.0964 95.9729 29.1506 95.7148 29.1971C95.4568 29.2435 95.2013 29.2848 94.9484 29.321C94.6955 29.3571 94.4762 29.388 94.2904 29.4138C93.8723 29.4706 93.4982 29.5635 93.1679 29.6925C92.8376 29.8216 92.5769 30.0022 92.386 30.2344C92.195 30.4615 92.0995 30.7557 92.0995 31.117C92.0995 31.6331 92.2879 32.0227 92.6647 32.2859C93.0414 32.5491 93.5214 32.6808 94.1046 32.6808ZM102.473 34.5V22.6091H105.19V24.5909H105.314C105.531 23.9045 105.903 23.3755 106.429 23.0039C106.961 22.6272 107.567 22.4388 108.248 22.4388C108.403 22.4388 108.576 22.4465 108.767 22.462C108.963 22.4723 109.126 22.4904 109.255 22.5162V25.0941C109.136 25.0528 108.948 25.0167 108.69 24.9857C108.437 24.9496 108.191 24.9315 107.954 24.9315C107.443 24.9315 106.984 25.0425 106.576 25.2644C106.174 25.4812 105.856 25.7831 105.624 26.1702C105.392 26.5572 105.276 27.0037 105.276 27.5094V34.5H102.473Z" fill="#1E1E1E"/>
</svg>
