<svg width="150" height="150" viewBox="0 0 150 150" fill="none" xmlns="http://www.w3.org/2000/svg">
<circle cx="75" cy="75" r="75" fill="white"/>
<path d="M47 55.8001H53.4H104.6" stroke="#DF0000" stroke-width="7" stroke-linecap="round" stroke-linejoin="round"/>
<path d="M98.1997 55.8V100.6C98.1997 102.297 97.5254 103.925 96.3251 105.125C95.1249 106.326 93.497 107 91.7997 107H59.7997C58.1023 107 56.4744 106.326 55.2742 105.125C54.0739 103.925 53.3997 102.297 53.3997 100.6V55.8M62.9997 55.8V49.4C62.9997 47.7026 63.6739 46.0747 64.8742 44.8745C66.0744 43.6743 67.7023 43 69.3997 43H82.1997C83.897 43 85.5249 43.6743 86.7251 44.8745C87.9254 46.0747 88.5997 47.7026 88.5997 49.4V55.8" stroke="#DF0000" stroke-width="7" stroke-linecap="round" stroke-linejoin="round"/>
<path d="M69.4004 71.8V91" stroke="#DF0000" stroke-width="7" stroke-linecap="round" stroke-linejoin="round"/>
<path d="M82.1996 71.8V91" stroke="#DF0000" stroke-width="7" stroke-linecap="round" stroke-linejoin="round"/>
</svg>
