<svg width="111" height="110" viewBox="0 0 111 110" fill="none" xmlns="http://www.w3.org/2000/svg">
<ellipse cx="55.3667" cy="55" rx="55.3667" ry="55" fill="#DEDEDE"/>
<path d="M77.8489 77V71.3333C77.8489 68.3275 76.6469 65.4449 74.5073 63.3195C72.3678 61.194 69.4659 60 66.44 60H43.6223C40.5964 60 37.6945 61.194 35.555 63.3195C33.4154 65.4449 32.2134 68.3275 32.2134 71.3333V77" stroke="black" stroke-width="3" stroke-linecap="round" stroke-linejoin="round"/>
<path d="M55.7022 54.6667C62.0032 54.6667 67.1111 49.5926 67.1111 43.3333C67.1111 37.0741 62.0032 32 55.7022 32C49.4013 32 44.2933 37.0741 44.2933 43.3333C44.2933 49.5926 49.4013 54.6667 55.7022 54.6667Z" stroke="black" stroke-width="3" stroke-linecap="round" stroke-linejoin="round"/>
</svg>
